# xmcd
#
# Track frame offsets:
#	150
#	20912
#	37775
#	59925
#
# Disc length: 1046 seconds
#
# Revision: 0
# Processed by: cddbd v1.4PL0 Copyright (c) Steve Scherf et al.
# Submitted via: EasyCDDAExtractor 5.0.5.1
#
DISCID=34041404
DTITLE=張學友 - 愛是永恆
DYEAR=1997
DGENRE=
TTITLE0=愛是永恆
TTITLE1=真相
TTITLE2=忘記你我做不到
TTITLE3=情書
EXTD=
EXTT0=
EXTT1=
EXTT2=
EXTT3=
PLAYORDER=
